<?xml version="1.0" encoding="UTF-8" standalone="no" ?>
<!DOCTYPE svg PUBLIC "-//W3C//DTD SVG 1.1//EN" "http://www.w3.org/Graphics/SVG/1.1/DTD/svg11.dtd">
<svg xmlns="http://www.w3.org/2000/svg" xmlns:xlink="http://www.w3.org/1999/xlink" version="1.1" width="890" height="300" viewBox="0 0 890 300" xml:space="preserve">
<desc>Created with Fabric.js 4.2.0</desc>
<defs>
</defs>
<rect x="0" y="0" width="100%" height="100%" fill="transparent"></rect>
<g transform="matrix(1 0 0 1 445 150)" id="d93534d4-b33e-4867-a701-f6368510be78"  >
<rect style="stroke: none; stroke-width: 1; stroke-dasharray: none; stroke-linecap: butt; stroke-dashoffset: 0; stroke-linejoin: miter; stroke-miterlimit: 4; fill: rgb(255,255,255); fill-rule: nonzero; opacity: 1;" vector-effect="non-scaling-stroke"  x="-445" y="-150" rx="0" ry="0" width="890" height="300" />
</g>
<g transform="matrix(Infinity NaN NaN Infinity 0 0)" id="461e0b04-1334-48f1-a7e2-25f31df81cc7"  >
</g>
<g transform="matrix(2.28 0 0 2.28 445 150)"  >
<g style="" vector-effect="non-scaling-stroke"   >
		<g transform="matrix(1.21 0 0 1.21 -131.01 0)"  >
<path style="stroke: none; stroke-width: 1; stroke-dasharray: none; stroke-linecap: butt; stroke-dashoffset: 0; stroke-linejoin: miter; stroke-miterlimit: 4; fill: rgb(4,161,24); fill-rule: nonzero; opacity: 1;" vector-effect="non-scaling-stroke"  transform=" translate(-50, -1002.37)" d="M 29.086397 961.95687 C 29.080397 961.95787 29.073897000000002 961.95987 29.067797000000002 961.96187 C 29.027497000000004 961.9688699999999 28.989497000000004 961.98887 28.960577 962.01787 L 27.547987 963.33255 L 26.135396999999998 964.64724 L 24.722817 965.96192 C 24.699817 965.9838199999999 24.682017 966.01122 24.671516999999998 966.04122 L 23.482706999999998 969.27199 C 23.472306999999997 969.30179 23.469106999999997 969.33399 23.473706999999997 969.36519 L 23.697487 971.28127 L 23.921256999999997 973.19736 L 24.037806999999997 974.17638 L 21.263916999999996 981.72882 C 18.415166999999997 985.8199000000001 16.457966999999996 990.44635 15.506346999999995 995.30924 L 14.774406999999995 991.0714800000001 L 15.077436999999994 990.0878 L 15.646206999999995 988.24165 L 16.205646999999995 986.39083 C 16.214646999999996 986.36183 16.219446999999995 986.3323300000001 16.214646999999996 986.30223 L 15.622576999999996 982.90829 C 15.618576999999997 982.87689 15.608176999999996 982.84569 15.589976999999996 982.8196899999999 L 14.433806999999996 981.2765599999999 L 13.282286999999997 979.7287799999999 L 12.126116999999997 978.18099 C 12.081616999999998 978.1186899999999 12.000496999999998 978.08929 11.925646999999998 978.10169 C 11.900746999999997 978.10569 11.877246999999997 978.11169 11.855746999999997 978.1249899999999 C 11.850746999999997 978.1289899999999 11.845746999999998 978.1339899999999 11.841746999999998 978.1389899999999 C 11.810446999999998 978.1653899999999 11.787046999999998 978.2019899999999 11.776446999999997 978.24155 L 11.212346999999998 980.08771 L 10.643586999999998 981.93386 L 10.079476999999999 983.77536 C 10.070476999999999 983.8058599999999 10.068976999999999 983.84206 10.074476999999998 983.87326 L 10.661896999999998 987.26253 C 10.667896999999998 987.2935299999999 10.679896999999999 987.32623 10.699196999999998 987.35113 L 11.850716999999998 988.89426 L 13.002226999999998 990.44204 L 13.594296999999997 991.23458 L 14.969596999999997 999.17863 C 14.885496999999997 1000.1766 14.839056999999997 1001.1824 14.839056999999997 1002.1903 C 14.839056999999997 1006.2515999999999 15.521026999999997 1010.154 16.769126999999997 1013.794 L 14.018546999999998 1010.4979999999999 L 13.785446999999998 1009.491 L 13.356536999999998 1007.6122 L 12.918306999999997 1005.7288 C 12.911306999999997 1005.6988 12.899906999999997 1005.6688 12.881006999999997 1005.6448 L 10.671206999999997 1003.0014 C 10.651706999999996 1002.9764 10.625406999999997 1002.9584 10.596606999999997 1002.9454 L 8.820386899999997 1002.1808 L 7.048822899999998 1001.4209 L 5.281923899999997 1000.6564 C 5.189003899999997 1000.6143999999999 5.063097899999997 1000.6564 5.016189899999997 1000.7454 C 5.0140898999999965 1000.7554 5.012989899999997 1000.7574 5.011489899999997 1000.7644 C 4.997539899999997 1000.8024 4.9962098999999975 1000.8464 5.006789899999998 1000.8856000000001 L 5.4403558999999975 1002.7644 L 5.869260899999998 1004.6478000000001 L 6.302826899999998 1006.5266 C 6.310226899999997 1006.5576 6.324096899999998 1006.5866 6.344786899999997 1006.6106 L 8.549916899999998 1009.2586 C 8.570516899999998 1009.2826 8.595316899999998 1009.2976 8.624516899999998 1009.3096 L 10.396076999999998 1010.0742 L 12.167637 1010.8388 L 13.076726999999998 1011.2257 L 18.237567 1017.4168 C 20.367137 1021.9368999999999 23.412577 1025.9424 27.137327 1029.1884 L 23.076726999999998 1027.6966 L 22.372767 1026.9413 L 21.058077 1025.5286999999998 L 19.738737 1024.1160999999997 C 19.718137 1024.0940999999998 19.692437 1024.0760999999998 19.664137 1024.0650999999998 L 16.428707 1022.8809999999999 C 16.399307 1022.8689999999999 16.367107 1022.8639999999998 16.335507 1022.8669999999998 L 14.419426999999999 1023.0953999999998 L 12.503346999999998 1023.3191999999998 L 10.587266999999997 1023.5429999999998 C 10.485646999999997 1023.5529999999998 10.400726999999996 1023.6507999999998 10.405446999999997 1023.7527999999998 C 10.406446999999996 1023.7627999999997 10.408446999999997 1023.7647999999997 10.410446999999998 1023.7717999999998 C 10.417446999999997 1023.8117999999997 10.437446999999997 1023.8497999999997 10.466346999999997 1023.8789999999998 L 11.781026999999998 1025.2915999999998 L 13.095716999999999 1026.7042 L 14.410397 1028.1168 C 14.432297 1028.1398 14.459697 1028.1578 14.489697 1028.1678 L 17.720467 1029.3565999999998 C 17.750267 1029.3665999999998 17.782467 1029.3705999999997 17.813667 1029.3665999999998 L 19.729747 1029.1427999999999 L 21.645837 1028.9189999999999 L 22.624857 1028.8024999999998 L 30.223917 1031.5949999999998 C 34.222327 1034.3777999999998 38.815627 1036.3642999999997 43.771697 1037.3292999999999 L 39.519947 1038.0658999999998 L 38.531607 1037.7627999999997 L 36.685457 1037.1986999999997 L 34.839297 1036.6345999999996 C 34.810297 1036.6245999999996 34.780797 1036.6205999999997 34.750697 1036.6245999999996 L 31.356767 1037.2166999999997 C 31.325367 1037.2166999999997 31.294167 1037.2356999999997 31.268167000000002 1037.2536999999998 L 29.720377000000003 1038.4098999999997 L 28.172597000000003 1039.5613999999996 L 26.624807000000004 1040.7128999999995 C 26.541707000000002 1040.7718999999995 26.518447000000005 1040.8972999999996 26.573507000000003 1040.9832999999996 C 26.577507000000004 1040.9932999999996 26.582507000000003 1040.9932999999996 26.587507000000002 1040.9972999999995 C 26.613907 1041.0282999999995 26.650507 1041.0522999999996 26.690067000000003 1041.0622999999996 L 28.536227000000004 1041.6263999999996 L 30.377717000000004 1042.1951999999997 L 32.223867000000006 1042.7592999999997 C 32.25436700000001 1042.7692999999997 32.285867 1042.7702999999997 32.31706700000001 1042.7692999999997 L 35.71100700000001 1042.1864999999998 C 35.74200700000001 1042.1764999999998 35.77000700000001 1042.1634999999999 35.79490700000001 1042.1444999999999 L 37.34270700000001 1040.993 L 38.890487000000014 1039.8415 L 39.678367000000016 1039.2541 L 47.650387000000016 1037.8741 C 48.21558700000001 1037.9211 48.78396700000002 1037.9521 49.356687000000015 1037.9721 L 49.356687000000015 1037.9950999999999 C 49.571227000000015 1037.9950999999999 49.786287000000016 1037.9850999999999 50.00003700000001 1037.9850999999999 C 50.213797000000014 1037.9850999999999 50.42884700000001 1037.9950999999999 50.643397000000014 1037.9950999999999 L 50.643397000000014 1037.9721 C 51.21611700000001 1037.9521 51.78448700000001 1037.9211 52.34968700000002 1037.8741 L 60.32170700000002 1039.2541 L 61.10958700000002 1039.8415 L 62.65737700000002 1040.993 L 64.20515700000001 1042.1444999999999 C 64.23005700000002 1042.1634999999999 64.25805700000001 1042.1805 64.28905700000001 1042.1864999999998 L 67.68299700000001 1042.7692999999997 C 67.71419700000001 1042.7792999999997 67.74579700000001 1042.7692999999997 67.77619700000001 1042.7592999999997 L 69.622347 1042.1951999999997 L 71.463837 1041.6263999999996 L 73.30998699999999 1041.0622999999996 C 73.34958699999999 1041.0512999999996 73.38618699999999 1041.0282999999995 73.41255699999999 1040.9972999999995 C 73.41755699999999 1040.9972999999995 73.422557 1040.9872999999995 73.42655699999999 1040.9832999999996 C 73.48165699999998 1040.8972999999996 73.45835699999999 1040.7721999999997 73.37525699999999 1040.7128999999995 L 71.82747699999999 1039.5613999999996 L 70.27968699999998 1038.4098999999997 L 68.73190699999998 1037.2536999999998 C 68.70590699999998 1037.2356999999997 68.67470699999998 1037.2206999999999 68.64330699999998 1037.2166999999997 L 65.24937699999998 1036.6245999999996 C 65.21927699999998 1036.6245999999996 65.18977699999998 1036.6247999999996 65.16077699999998 1036.6345999999996 L 63.31462699999998 1037.1986999999997 L 61.46847699999998 1037.7627999999997 L 60.48012699999998 1038.0657999999999 L 56.228386999999984 1037.3292999999999 C 61.18445699999998 1036.3643 65.77774699999998 1034.3778 69.77615699999998 1031.5949999999998 L 77.37522699999998 1028.8023999999998 L 78.35424699999999 1028.9189999999999 L 80.27032699999998 1029.1427999999999 L 82.18640699999997 1029.3665999999998 C 82.21760699999997 1029.3665999999998 82.24990699999998 1029.3675999999998 82.27960699999997 1029.3565999999998 L 85.51037699999998 1028.1676999999997 C 85.54037699999998 1028.1576999999997 85.56777699999998 1028.1396999999997 85.58967699999998 1028.1166999999998 L 86.90435699999998 1026.7042 L 88.21903699999997 1025.2915999999998 L 89.53372699999997 1023.8789999999998 C 89.56272699999997 1023.8499999999998 89.58252699999997 1023.8119999999998 89.58962699999996 1023.7717999999998 C 89.59162699999996 1023.7617999999998 89.59262699999996 1023.7597999999998 89.59462699999996 1023.7527999999998 C 89.59962699999996 1023.6507999999998 89.51442699999996 1023.5527999999997 89.41280699999996 1023.5429999999998 L 87.49672699999996 1023.3191999999998 L 85.58063699999997 1023.0953999999998 L 83.66456699999996 1022.8669999999998 C 83.63296699999997 1022.8669999999998 83.60076699999996 1022.8669999999998 83.57136699999997 1022.8809999999999 L 80.33593699999997 1024.0650999999998 C 80.30763699999997 1024.0760999999998 80.28193699999997 1024.0940999999998 80.26133699999997 1024.1160999999997 L 78.94198699999997 1025.5286999999998 L 77.62730699999997 1026.9413 L 76.92333699999998 1027.6965 L 72.86273699999998 1029.1884 C 76.58749699999998 1025.9424 79.63292699999998 1021.9369 81.76249699999998 1017.4168 L 86.92333699999998 1011.2257 L 87.83242699999998 1010.8387 L 89.60398699999998 1010.0742 L 91.37554699999997 1009.3096 C 91.40474699999997 1009.2976000000001 91.42954699999997 1009.2826 91.45014699999997 1009.2586 L 93.65527699999997 1006.6106 C 93.67597699999997 1006.5866 93.68977699999996 1006.5576 93.69727699999997 1006.5266 L 94.13083699999997 1004.6478000000001 L 94.55974699999997 1002.7643 L 94.99330699999997 1000.8856000000001 C 95.00390699999997 1000.8466000000001 95.00230699999997 1000.8026000000001 94.98830699999998 1000.7643 C 94.98730699999997 1000.7543000000001 94.98530699999998 1000.7513 94.98330699999998 1000.7453 C 94.93640699999999 1000.6543 94.81049699999998 1000.6145 94.71757699999998 1000.6563 L 92.95067699999997 1001.4209 L 91.17911699999998 1002.1808 L 89.40289699999998 1002.9454 C 89.37409699999998 1002.9584 89.34779699999999 1002.9763999999999 89.32829699999998 1003.0014 L 87.11850699999998 1005.6447 C 87.09960699999998 1005.6687 87.08780699999998 1005.6986999999999 87.08120699999998 1005.7286999999999 L 86.64297699999997 1007.6121999999999 L 86.21407699999997 1009.4909999999999 L 85.98097699999998 1010.4979999999998 L 83.23039699999998 1013.7939999999999 C 84.47848699999999 1010.1539999999999 85.16046699999998 1006.2514999999999 85.16046699999998 1002.1902999999999 C 85.16046699999998 1001.1823999999999 85.11406699999998 1000.1765999999999 85.02992699999999 999.1786199999999 L 86.405217 991.23457 L 86.997287 990.4420299999999 L 88.148807 988.8942499999999 L 89.300317 987.3511199999999 C 89.31961700000001 987.3262199999999 89.33171700000001 987.29352 89.33761700000001 987.2625199999999 L 89.92502700000001 983.8732499999999 C 89.93102700000001 983.8420499999999 89.92902700000002 983.8058499999999 89.92002700000002 983.7753499999999 L 89.35592700000002 981.9338599999999 L 88.78715700000002 980.0876999999998 L 88.22305700000003 978.2415499999998 C 88.21245700000003 978.2020499999999 88.18915700000002 978.1653499999999 88.15775700000003 978.1389899999998 C 88.15375700000003 978.1339899999998 88.14875700000003 978.1289899999998 88.14375700000004 978.1249899999998 C 88.12225700000003 978.1111899999999 88.09875700000003 978.1057899999998 88.07385700000003 978.1016899999998 C 87.99905700000004 978.0892899999999 87.91788700000004 978.1185899999998 87.87339700000003 978.1809899999998 L 86.71721700000002 979.7287799999998 L 85.56567700000002 981.2765499999998 L 84.40949700000002 982.8196799999998 C 84.39129700000002 982.8456799999998 84.38119700000001 982.8768799999998 84.37689700000001 982.9082799999999 L 83.784827 986.3022199999999 C 83.780827 986.3323199999999 83.78497700000001 986.36182 83.79382700000001 986.39082 L 84.353267 988.24164 L 84.922037 990.0877899999999 L 85.22506700000001 991.07147 L 84.49312700000002 995.30923 C 83.54150700000001 990.44634 81.58431700000001 985.81989 78.73555700000001 981.7288199999999 L 75.96166700000002 974.1763799999999 L 76.07821700000002 973.1973499999999 L 76.30199700000003 971.28127 L 76.52576700000003 969.36519 C 76.52976700000004 969.33399 76.52676700000004 969.30169 76.51676700000003 969.27199 L 75.32795700000003 966.04122 C 75.31745700000003 966.01122 75.29965700000002 965.9838199999999 75.27665700000003 965.96192 L 73.86406700000003 964.6472299999999 L 72.45147700000004 963.33255 L 71.03889700000003 962.0178599999999 C 71.00999700000004 961.9888599999999 70.97199700000003 961.9690599999999 70.93166700000003 961.96196 C 70.92566700000003 961.95996 70.91926700000003 961.9589599999999 70.91306700000003 961.95696 C 70.81108700000003 961.95196 70.71310700000002 962.03716 70.70327700000003 962.13877 L 70.47950700000003 964.0548600000001 L 70.25572700000002 965.97094 L 70.02728700000002 967.88702 C 70.02428700000002 967.91862 70.02928700000001 967.95082 70.04128700000001 967.98022 L 71.22543700000001 971.21565 C 71.23663700000002 971.2439499999999 71.254337 971.26965 71.27673700000001 971.29025 L 72.689327 972.6096 L 74.10190700000001 973.92428 L 74.85715700000002 974.62825 L 76.78722700000002 979.88699 L 76.49817700000001 980.12475 L 66.866487 972.0921199999999 L 66.72662700000001 971.76578 L 65.962057 969.9942199999999 L 65.197487 968.2226599999999 L 62.554137 966.0175199999999 L 60.675357 965.5839599999998 L 58.791906999999995 965.1503899999998 L 58.45157699999999 965.0710899999998 L 58.400276999999996 965.0290899999998 L 58.376977 965.0570899999998 L 56.913107 964.7167599999998 L 57.505176999999996 966.1013799999998 L 57.444576999999995 966.1759799999999 L 57.593757 966.2971899999999 L 57.673057 966.4883299999999 L 58.437627 968.26456 L 59.202187 970.03612 L 61.845547 972.24124 L 63.72899700000001 972.67481 L 65.60777700000001 973.10838 L 65.81290700000001 973.15498 L 75.56115700000001 981.28551 C 76.71248700000001 982.72878 77.738387 984.2539400000001 78.62875700000001 985.8496100000001 L 70.908477 982.2785100000001 L 70.80591700000001 982.1479800000001 L 69.61243700000001 980.6328300000001 L 68.44693700000002 979.1549700000002 L 65.41197700000002 977.7470500000002 L 63.52852700000002 977.8169500000001 L 61.59845700000002 977.8822500000001 L 60.06465700000002 977.9381500000001 L 61.01570700000002 979.1409500000001 L 62.21384700000002 980.6561 L 63.37468700000002 982.13395 L 66.41430700000002 983.54188 L 68.29775700000002 983.47198 L 70.22316700000002 983.40668 L 70.49355700000002 983.39768 L 79.52851700000002 987.5794900000001 C 81.71855700000002 992.10449 82.87583700000002 997.09689 82.87583700000002 1002.1902000000001 C 82.87583700000002 1002.3474000000001 82.87283700000002 1002.5044000000001 82.87083700000002 1002.6611000000001 L 77.98039700000002 995.7240100000001 L 77.95709700000002 995.5608400000001 L 77.67737700000002 993.6494200000001 L 77.40697700000003 991.7892800000001 L 75.48623700000003 989.0526800000001 L 73.81723700000003 988.1715700000001 L 72.11560700000004 987.2624700000001 L 70.75896700000004 986.5445300000001 L 70.97807700000004 988.0596800000001 L 71.26245700000004 989.9711000000001 L 71.52819700000003 991.8312400000001 L 73.45359700000003 994.5724900000001 L 75.12259700000003 995.4536100000001 L 76.81956700000002 996.3580400000002 L 77.06198700000002 996.4839200000002 L 82.78692700000002 1004.6145000000002 C 82.40361700000003 1009.9834000000003 80.76047700000002 1015.0033000000002 78.14823700000002 1019.3744000000003 L 77.37900700000003 1010.9035000000002 L 77.43960700000002 1010.7496000000002 L 78.15754700000002 1008.9548000000002 L 78.85218700000003 1007.2065000000002 L 78.55848700000003 1003.8779000000002 L 77.55615700000003 1002.2788000000002 L 76.53051700000003 1000.6424000000002 L 75.71932700000004 999.3417200000001 L 75.15055700000003 1000.7636000000001 L 74.43727700000004 1002.5632000000002 L 73.73797700000004 1004.3068000000002 L 74.04100700000005 1007.6401000000002 L 75.04333700000005 1009.2392000000002 L 76.05964700000006 1010.8709000000002 L 76.20416700000006 1011.1040000000003 L 77.09927700000006 1021.0154000000002 C 74.17180700000006 1025.3234000000002 70.26565700000006 1028.9108000000003 65.70067700000006 1031.4629000000002 L 69.27177700000006 1023.7473000000002 L 69.40230700000005 1023.6447000000002 L 70.91745700000006 1022.4513000000002 L 72.39531700000006 1021.2858000000002 L 73.80323700000007 1018.2508000000003 L 73.73333700000006 1016.3674000000002 L 73.66803700000007 1014.4373000000002 L 73.61213700000008 1012.9035000000001 L 72.40934700000008 1013.8545000000001 L 70.89418700000009 1015.0527000000002 L 69.41633700000008 1016.2135000000002 L 68.00841700000008 1019.2531000000001 L 68.07831700000008 1021.1366000000002 L 68.14361700000008 1023.0620000000001 L 68.15261700000008 1023.3324000000001 L 63.970797000000076 1032.3674 C 60.56607700000008 1034.0173 56.838607000000074 1035.1096 52.907867000000074 1035.5235 L 51.02907700000007 1034.1995 L 55.826277000000076 1030.8196 L 55.994117000000074 1030.7966000000001 L 57.900867000000076 1030.5215 L 59.765677000000075 1030.2511 L 62.502267000000074 1028.3256999999999 L 63.38338700000008 1026.6566999999998 L 64.29247700000008 1024.9550999999997 L 65.01042700000008 1023.5983999999996 L 63.49061700000008 1023.8221999999996 L 61.579187000000076 1024.1018999999997 L 59.71905700000008 1024.3676999999996 L 56.982457000000075 1026.2930999999996 L 56.10133700000007 1027.9620999999997 L 55.19224700000007 1029.6589999999997 L 55.066377000000074 1029.9014999999997 L 49.998777000000075 1033.4725999999996 L 44.93118700000007 1029.9014999999997 L 44.80530700000007 1029.6589999999997 L 43.89621700000007 1027.9620999999997 L 43.01509700000007 1026.2930999999996 L 40.27850700000007 1024.3676999999996 L 38.41836700000007 1024.1018999999997 L 36.50694700000007 1023.8221999999996 L 34.987127000000065 1023.5983999999996 L 35.70507700000007 1024.9550999999997 L 36.614167000000066 1026.6566999999998 L 37.49528700000007 1028.3256999999999 L 40.23188700000007 1030.2511 L 42.096687000000074 1030.5215 L 44.00344700000007 1030.7966000000001 L 44.171277000000075 1030.8196 L 48.96847700000008 1034.1995 L 47.089687000000076 1035.5235 C 43.15895700000008 1035.1096 39.43147700000007 1034.0173 36.026757000000075 1032.3674 L 31.844947000000076 1023.3324000000001 L 31.853947000000076 1023.0620000000001 L 31.919247000000077 1021.1366000000002 L 31.989147000000077 1019.2531000000001 L 30.581217000000077 1016.2135000000002 L 29.103367000000077 1015.0527000000002 L 27.58821700000008 1013.8545000000001 L 26.38541700000008 1012.9035000000001 L 26.329517000000077 1014.4373000000002 L 26.264217000000077 1016.3674000000002 L 26.194317000000076 1018.2508000000003 L 27.602237000000077 1021.2858000000002 L 29.080097000000077 1022.4513000000002 L 30.595247000000075 1023.6447000000002 L 30.725777000000075 1023.7473000000002 L 34.29687700000007 1031.4629000000002 C 29.731897000000075 1028.9108 25.82574700000007 1025.3234000000002 22.89827700000007 1021.0154000000002 L 23.79338700000007 1011.1040000000003 L 23.93790700000007 1010.8709000000002 L 24.95422700000007 1009.2392000000002 L 25.95655700000007 1007.6401000000002 L 26.25958700000007 1004.3068000000002 L 25.56028700000007 1002.5632000000002 L 24.84699700000007 1000.7636000000001 L 24.27823700000007 999.3417200000001 L 23.46704700000007 1000.6424000000002 L 22.44140700000007 1002.2788000000002 L 21.43907700000007 1003.8779000000002 L 21.145367000000068 1007.2065000000002 L 21.840007000000067 1008.9548000000002 L 22.557957000000066 1010.7496000000002 L 22.618557000000067 1010.9035000000002 L 21.849327000000066 1019.3744000000003 C 19.237087000000066 1015.0033000000003 17.593947000000068 1009.9834000000003 17.210637000000066 1004.6145000000002 L 22.935577000000066 996.4839200000002 L 23.177997000000065 996.3580400000002 L 24.874967000000066 995.4536100000001 L 26.543967000000066 994.5724900000001 L 28.469377000000065 991.8312400000001 L 28.735107000000067 989.9711000000001 L 29.019487000000066 988.0596800000001 L 29.238607000000066 986.5445300000001 L 27.881957000000067 987.2624700000001 L 26.180327000000066 988.1715700000001 L 24.511337000000065 989.0526800000001 L 22.590587000000063 991.7892800000001 L 22.320187000000065 993.6494200000001 L 22.040467000000064 995.5608400000001 L 22.017167000000065 995.7240100000001 L 17.126727000000066 1002.6611000000001 C 17.124727000000068 1002.5044000000001 17.121727000000067 1002.3474000000001 17.121727000000067 1002.1902000000001 C 17.121727000000067 997.0968900000001 18.279007000000068 992.1044900000002 20.469047000000067 987.5794900000001 L 29.504007000000065 983.39768 L 29.774397000000064 983.40668 L 31.699807000000064 983.47198 L 33.58325700000007 983.54188 L 36.62287700000007 982.13395 L 37.78371700000007 980.6561 L 38.98185700000007 979.1409500000001 L 39.93290700000007 977.9381500000001 L 38.39910700000007 977.8822500000001 L 36.46903700000007 977.8169500000001 L 34.58558700000007 977.7470500000002 L 31.55062700000007 979.1549700000002 L 30.385127000000068 980.6328300000001 L 29.191647000000067 982.1479800000001 L 29.089087000000067 982.2785100000001 L 21.368807000000068 985.8496100000001 C 22.25916700000007 984.2539400000001 23.28507700000007 982.7287800000001 24.436397000000067 981.28551 L 34.18464700000007 973.15498 L 34.389777000000066 973.10838 L 36.26856700000007 972.67481 L 38.15200700000007 972.24124 L 40.79536700000007 970.03612 L 41.55993700000007 968.26456 L 42.32450700000007 966.4883299999999 L 42.40380700000007 966.2971899999999 L 42.55298700000007 966.1759799999999 L 42.49238700000007 966.1013799999998 L 43.08445700000007 964.7167599999998 L 41.62058700000007 965.0570899999998 L 41.59728700000007 965.0290899999998 L 41.545987000000075 965.0710899999998 L 41.205667000000076 965.1503899999998 L 39.32221700000007 965.5839599999998 L 37.44342700000007 966.0175199999999 L 34.80006700000007 968.2226499999999 L 34.03550700000007 969.99421 L 33.27093700000007 971.76577 L 33.13107700000007 972.0921099999999 L 23.499377000000067 980.12474 L 23.210337000000067 979.88698 L 25.140407000000067 974.62824 L 25.895647000000068 973.92428 L 27.30823700000007 972.6095899999999 L 28.720817000000068 971.2902499999999 C 28.74321700000007 971.26965 28.760917000000067 971.2439499999999 28.77211700000007 971.2156499999999 L 29.95625700000007 967.9802199999999 C 29.96815700000007 967.9508199999999 29.97305700000007 967.9186199999999 29.970257000000068 967.8870199999999 L 29.74181700000007 965.9709399999999 L 29.51804700000007 964.05486 L 29.29426700000007 962.13878 C 29.284267000000067 962.03716 29.186467000000068 961.95224 29.084477000000067 961.95696 z M 50.000137 1034.9265 L 51.044427 1035.6631 C 50.697576999999995 1035.6801 50.349686999999996 1035.6941 50.000137 1035.7001 C 49.651177000000004 1035.6901 49.302117 1035.6801 48.955847000000006 1035.6631 L 50.000137 1034.9265 z" stroke-linecap="round" />
</g>
		<g transform="matrix(1.72 0 0 1.72 65.51 -13.12)"  >
<linearGradient id="SVGID_SvgjsLinearGradient1465_3" gradientUnits="objectBoundingBox" gradientTransform="matrix(1 0 0 1 73.38 25.89)"  x1="0" y1="0" x2="1" y2="0">
<stop offset="0%" style="stop-color:rgb(0,104,56);stop-opacity: 1"/>
<stop offset="100%" style="stop-color:rgb(150,207,36);stop-opacity: 1"/>
</linearGradient>
<path style="stroke: none; stroke-width: 1; stroke-dasharray: none; stroke-linecap: butt; stroke-dashoffset: 0; stroke-linejoin: miter; stroke-miterlimit: 4; fill: url(#SVGID_SvgjsLinearGradient1465_3); fill-rule: nonzero; opacity: 1;" vector-effect="non-scaling-stroke"  transform=" translate(-73.38, -25.89)" d="M 9.5117 34.8242 L 18.3594 34.8242 L 18.3594 40 L 3.6524 40 L 3.6524 11.777000000000001 L 9.511800000000001 11.777000000000001 L 9.511800000000001 34.824 z M 23.740190625 40 L 23.740190625 11.777000000000001 L 29.599590625 11.777000000000001 L 29.599590625 40 L 23.740190625 40 z M 56.679625 40 L 54.628825 34.1797 L 42.773825 34.1797 L 40.723025 40 L 34.726925 40 L 45.117925 11.777000000000001 L 52.285925 11.777000000000001 L 62.676925 40 L 56.680825 40 z M 44.492625000000004 29.277 L 52.910625 29.277 L 48.711425000000006 17.304000000000002 z M 85.771921875 11.777000000000001 L 92.00242187500001 11.777000000000001 L 81.572421875 40 L 75.127121875 40 L 64.756121875 11.777000000000001 L 70.967021875 11.777000000000001 L 78.369321875 33.164 z M 118.32009375 11.777000000000001 L 109.04279375 26.484 L 109.04279375 40 L 103.16389375 40 L 103.16389375 26.621000000000002 L 93.82799375 11.777000000000003 L 100.31239375 11.777000000000003 L 106.07409375 21.386400000000002 L 111.85539375 11.777000000000001 L 118.32019375 11.777000000000001 z M 132.568015625 40.39063 C 126.51331562499999 40.39063 121.78701562499998 37.48043 120.92701562499998 32.18753 L 126.98171562499998 30.80083 C 127.37234562499998 33.96493 129.696515625 35.60553 132.80201562499997 35.60553 C 135.18481562499997 35.60553 137.07931562499996 34.550830000000005 137.05981562499997 32.16803 C 137.04028462499997 29.51173 133.91531562499998 28.671930000000003 130.47781562499998 27.617230000000003 C 126.33721562499997 26.32813 121.90361562499997 24.804730000000003 121.90361562499997 19.609430000000003 C 121.90361562499997 14.355530000000003 126.20051562499997 11.386730000000004 131.86451562499997 11.386730000000004 C 136.82541562499998 11.386730000000004 141.82541562499998 13.398430000000003 142.95851562499996 18.808630000000004 L 137.29441562499997 20.214930000000006 C 136.76707562499996 17.402430000000006 134.87251562499998 16.171930000000007 132.21631562499996 16.171930000000007 C 129.85301562499995 16.171930000000007 127.84131562499996 17.148490000000006 127.84131562499996 19.472730000000006 C 127.84131562499996 21.640730000000005 130.61471562499997 22.363330000000005 133.81791562499996 23.320430000000005 C 138.07571562499996 24.609530000000007 143.11481562499995 26.250130000000006 143.11481562499995 31.875130000000006 C 143.11481562499995 37.871230000000004 138.09531562499996 40.390730000000005 132.56781562499995 40.390730000000005 z" stroke-linecap="round" />
</g>
		<g transform="matrix(1.08 0 0 1.08 65.51 30.87)"  >
<path style="stroke: none; stroke-width: 1; stroke-dasharray: none; stroke-linecap: butt; stroke-dashoffset: 0; stroke-linejoin: miter; stroke-miterlimit: 4; fill: rgb(89,165,44); fill-rule: nonzero; opacity: 1;" vector-effect="non-scaling-stroke"  transform=" translate(-112.98, -12.94)" d="M 1.8262 20 L 1.8262 5.888999999999999 L 6.9336 5.888999999999999 C 11.4356 5.888999999999999 13.6621 8.721 13.6621 12.939799999999998 C 13.6621 17.1683 11.435500000000001 20.0003 6.9336 20.0003 L 1.8262 20.0003 z M 4.7559 17.4121 L 6.7871999999999995 17.4121 C 9.3849 17.4121 10.5763 15.790999999999999 10.5763 12.9394 C 10.5763 10.0878 9.3849 8.4667 6.7872 8.4667 L 4.7559000000000005 8.4667 L 4.7559000000000005 17.412 z M 24.590078124999998 8.467 L 19.355678124999997 8.467 L 19.355678124999997 11.670100000000001 L 23.994378124999997 11.670100000000001 L 23.994378124999997 14.218900000000001 L 19.355678124999997 14.218900000000001 L 19.355678124999997 17.412300000000002 L 24.590078124999998 17.412300000000002 L 24.590078124999998 20.000200000000003 L 16.406478125 20.000200000000003 L 16.406478125 5.889200000000002 L 24.590078124999998 5.889200000000002 L 24.590078124999998 8.467300000000002 z M 32.29495 20.19531 C 29.26765 20.19531 26.90435 18.740209999999998 26.47465 16.093709999999998 L 29.50195 15.400349999999998 C 29.69726 16.982349999999997 30.85935 17.802649999999996 32.412150000000004 17.802649999999996 C 33.603550000000006 17.802649999999996 34.550850000000004 17.275309999999998 34.541050000000006 16.083849999999995 C 34.531284400000004 14.755749999999995 32.96875000000001 14.335849999999995 31.250050000000005 13.808449999999995 C 29.179750000000006 13.163919999999996 26.962950000000006 12.402149999999995 26.962950000000006 9.804549999999995 C 26.962950000000006 7.177549999999996 29.111350000000005 5.6932499999999955 31.943450000000006 5.6932499999999955 C 34.423950000000005 5.6932499999999955 36.923950000000005 6.699149999999996 37.49035000000001 9.404149999999996 L 34.658350000000006 10.107279999999996 C 34.39468000000001 8.700979999999996 33.44745 8.085779999999996 32.11925000000001 8.085779999999996 C 30.93765000000001 8.085779999999996 29.931750000000008 8.574059999999996 29.931750000000008 9.736179999999996 C 29.931750000000008 10.820179999999995 31.31845000000001 11.181479999999995 32.92005000000001 11.659979999999996 C 35.04895000000001 12.304509999999995 37.56845000000001 13.124779999999996 37.56845000000001 15.937279999999996 C 37.56845000000001 18.935279999999995 35.058650000000014 20.195079999999997 32.29505000000001 20.195079999999997 z M 40.273465625 20 L 40.273465625 5.888999999999999 L 43.203165625 5.888999999999999 L 43.203165625 20 L 40.273465625 20 z M 52.94923125 20.19531 C 48.87693125 20.19531 45.878931249999994 17.38281 45.878931249999994 12.97851 C 45.878931249999994 8.515609999999999 48.945331249999995 5.69331 53.09573124999999 5.69331 C 55.820331249999995 5.69331 58.07623124999999 6.89451 59.306631249999995 9.01361 L 56.73823125 10.38081 C 55.99604125 8.93551 54.667931249999995 8.24211 53.09563125 8.24211 C 50.654231249999995 8.24211 48.81833125 9.92181 48.81833125 12.91011 C 48.81833125 15.79101 50.53713125 17.64641 53.20313125 17.64641 C 55.00973125 17.64641 56.66993125 16.74797 57.070331249999995 14.68741 L 53.21293125 14.68741 L 53.21293125 12.33391 L 59.843831249999994 12.33391 L 59.843831249999994 19.99991 L 57.53913125 19.99991 L 57.53913125 18.04681 C 56.630931249999996 19.384710000000002 55.107531249999994 20.19521 52.94933125 20.19521 z M 72.5196875 5.888999999999999 L 75.4395875 5.888999999999999 L 75.4395875 20 L 72.0508875 20 L 65.8008875 9.912 L 65.8008875 20 L 62.8809875 20 L 62.8809875 5.888999999999999 L 66.2305875 5.888999999999999 L 72.5196875 15.918 L 72.5196875 5.888999999999999 z M 86.5820375 20 L 82.8906375 5.888999999999999 L 85.93753749999999 5.888999999999999 L 88.69143749999999 16.573 L 91.8457375 5.889000000000001 L 94.31643749999999 5.889000000000001 L 97.45123749999999 16.573 L 100.23443749999998 5.889000000000001 L 103.27153749999998 5.889000000000001 L 99.58013749999998 20 L 95.81063749999998 20 L 93.07623749999999 11.2793 L 90.3516375 20 L 86.5821375 20 z M 105.527371875 20 L 105.527371875 5.888999999999999 L 108.457071875 5.888999999999999 L 108.457071875 20 L 105.527371875 20 z M 120.2834375 5.888999999999999 L 120.2834375 8.467099999999999 L 116.93383750000001 8.467099999999999 L 116.93383750000001 20.000099999999996 L 114.0334375 20.000099999999996 L 114.0334375 8.467099999999997 L 110.6643375 8.467099999999997 L 110.6643375 5.888999999999997 L 120.2834375 5.888999999999997 z M 131.396828125 5.888999999999999 L 134.326528125 5.888999999999999 L 134.326528125 20 L 131.396828125 20 L 131.396828125 14.199200000000001 L 125.430028125 14.199200000000001 L 125.430028125 20 L 122.50032812500001 20 L 122.50032812500001 5.888999999999999 L 125.430028125 5.888999999999999 L 125.430028125 11.6507 L 131.396828125 11.6507 L 131.396828125 5.889 z M 143.17385625 20 L 143.17385625 5.888999999999999 L 148.28125625 5.888999999999999 C 152.78325625000002 5.888999999999999 155.00975625 8.721 155.00975625 12.939799999999998 C 155.00975625 17.1683 152.78315625000002 20.0003 148.28125625 20.0003 L 143.17385625 20.0003 z M 146.10355625 17.4121 L 148.13485624999998 17.4121 C 150.73255625 17.4121 151.92395624999997 15.790999999999999 151.92395624999997 12.9394 C 151.92395624999997 10.0878 150.73255625 8.4667 148.13485624999998 8.4667 L 146.10355625 8.4667 L 146.10355625 17.412 z M 157.753934375 20 L 157.753934375 5.888999999999999 L 160.683634375 5.888999999999999 L 160.683634375 20 L 157.753934375 20 z M 170.4297 20.19531 C 166.35739999999998 20.19531 163.3594 17.38281 163.3594 12.97851 C 163.3594 8.515609999999999 166.42579999999998 5.69331 170.5762 5.69331 C 173.3008 5.69331 175.5567 6.89451 176.7871 9.01361 L 174.2187 10.38081 C 173.47651000000002 8.93551 172.1484 8.24211 170.57610000000003 8.24211 C 168.13470000000004 8.24211 166.29880000000003 9.92181 166.29880000000003 12.91011 C 166.29880000000003 15.79101 168.01760000000002 17.64641 170.68360000000004 17.64641 C 172.49020000000004 17.64641 174.15040000000005 16.74797 174.55080000000004 14.68741 L 170.69340000000003 14.68741 L 170.69340000000003 12.33391 L 177.32430000000002 12.33391 L 177.32430000000002 19.99991 L 175.01960000000003 19.99991 L 175.01960000000003 18.04681 C 174.11140000000003 19.384710000000002 172.58800000000002 20.19521 170.42980000000003 20.19521 z M 190.00015625 5.888999999999999 L 192.92005625000002 5.888999999999999 L 192.92005625000002 20 L 189.53135625000002 20 L 183.28135625000002 9.912 L 183.28135625000002 20 L 180.36145625 20 L 180.36145625 5.888999999999999 L 183.71105625 5.888999999999999 L 190.00015625 15.918 L 190.00015625 5.888999999999999 z M 196.57229375 20 L 196.57229375 5.888999999999999 L 199.50199375 5.888999999999999 L 199.50199375 20 L 196.57229375 20 z M 211.328359375 5.888999999999999 L 211.328359375 8.467099999999999 L 207.97875937499998 8.467099999999999 L 207.97875937499998 20.000099999999996 L 205.078359375 20.000099999999996 L 205.078359375 8.467099999999997 L 201.709259375 8.467099999999997 L 201.709259375 5.888999999999997 L 211.328359375 5.888999999999997 z M 224.13075 5.888999999999999 L 219.49205 13.2425 L 219.49205 20.0003 L 216.55255 20.0003 L 216.55255 13.3108 L 211.88455 5.8889000000000005 L 215.12675 5.8889000000000005 L 218.00764999999998 10.6936 L 220.89825 5.8889 L 224.13065 5.8889 z" stroke-linecap="round" />
</g>
</g>
</g>
</svg>